<?xml version="1.0" encoding="utf-8"?>
<!-- Generator: Adobe Illustrator 17.1.0, SVG Export Plug-In . SVG Version: 6.00 Build 0)  -->
<!DOCTYPE svg PUBLIC "-//W3C//DTD SVG 1.1//EN" "http://www.w3.org/Graphics/SVG/1.1/DTD/svg11.dtd">
<svg version="1.1" id="Layer_1" xmlns="http://www.w3.org/2000/svg" xmlns:xlink="http://www.w3.org/1999/xlink" x="0px" y="0px"
	 viewBox="0 0 1000 1000" enable-background="new 0 0 1000 1000" xml:space="preserve">
<g>
	<circle fill="#FFFFFF" cx="484.2" cy="115.1" r="87.9"/>
	<path fill="#FFFFFF" d="M503.4,243.2h-38.5c-6.1,0-10.2,6.4-7.5,11.9l19.3,40.5l-8.8,18.4l16.3,35.6l16.3-35.6l-8.8-18.4l19.3-40.5
		C513.6,249.6,509.6,243.2,503.4,243.2z"/>
	<path fill="#FFFFFF" d="M311.4,619c17.5,0,34.9-9.4,34.9-27.9l0.4-218.6l28.5,0.1l0.9,562.2c0,28.2,23.9,42.4,47.8,42.4
		c24,0,48-14.2,48-42.6v-278h24.4v278c0,28.4,24,42.6,48,42.6c23.9,0,47.8-14.1,47.8-42.4l0.9-562.2l28.5,0.2l0.4,218.2
		c0,11,6.1,18.7,14.7,23.2v8.3v8v19.1h-9c-10.8,0-19.5,8.7-19.5,19.5v165c0,10.8,8.7,19.5,19.5,19.5h58c10.8,0,19.5-8.7,19.5-19.5
		v-165c0-10.8-8.7-19.5-19.5-19.5h-9v-18.9v-8v-8.2c9.3-4.6,16-13,16-25l-0.4-275.2c1.9-44.4-22.7-71.1-61.1-71.1h-65.8
		c-9.8,0-18.6,5.7-22.7,14.6l-33.9,73.9l-14.4,31.5c-2,4.4-6.2,6.6-10.3,6.6s-8.3-2.2-10.3-6.6l-14.4-31.5l-33.9-73.9
		c-4.1-8.9-12.9-14.6-22.7-14.6h-65.8c-38.4,0-63,26.7-61.1,71.1l-0.4,275.2C275.6,609.3,293.6,619,311.4,619z"/>
</g>
</svg>
