<?xml version="1.0" encoding="utf-8"?>
<!-- Generator: Adobe Illustrator 17.1.0, SVG Export Plug-In . SVG Version: 6.00 Build 0)  -->
<!DOCTYPE svg PUBLIC "-//W3C//DTD SVG 1.1//EN" "http://www.w3.org/Graphics/SVG/1.1/DTD/svg11.dtd">
<svg version="1.1" id="Calque_1" xmlns="http://www.w3.org/2000/svg" xmlns:xlink="http://www.w3.org/1999/xlink" x="0px" y="0px"
	 viewBox="40 87.5 420 325" style="enable-background:new 40 87.5 420 325;" xml:space="preserve">
<g id="WEB_DESIGN">
	<g>
		<polygon style="fill:#313344;" points="269.833,265.634 269.833,262.621 269.833,148 265.821,148 265.821,262.621 
			252.006,262.621 252.006,148 247.994,148 247.994,262.621 235.352,262.621 235.352,148 231.339,148 231.339,262.621 
			231.339,266.3 231.339,266.634 269.833,266.634 		"/>
		<polygon style="fill:#313344;" points="258.694,288.081 251.084,277.366 244.59,288.191 232.751,275.05 232.803,280.636 
			244.909,310.928 256.436,310.826 270.553,280.312 270.523,276.273 		"/>
		<polygon style="fill:#313344;" points="269.826,122.75 231.339,122.75 231.339,142.132 269.826,141.938 		"/>
		<path style="fill:#313344;" d="M30,77v340h440V77H30z M312.756,381L312.756,381v4.013h-60.75V412.5h-4.013V381h4.013v0h56.737
			v-18.899h-121.5v-4.013h0v-22.912h4.013h58.719l-21.503-54.105l-0.815-122.627l-0.088,0.012l-0.243-39.598l20.667-0.136V87.468
			h4.013v31.228l21.836-0.143l0.268,39.585l-0.088-0.009l0.664,123.548l-24.711,53.498H250v4.013h-58.744v18.899h117.487h4.013V381z
			"/>
	</g>
</g>
<g id="APP_DESIGN">
</g>
<g id="ECOMMERCE">
</g>
<g id="WORDPRESS">
</g>
</svg>
