<?xml version="1.0" encoding="utf-8"?>
<!-- Generator: Adobe Illustrator 17.1.0, SVG Export Plug-In . SVG Version: 6.00 Build 0)  -->
<!DOCTYPE svg PUBLIC "-//W3C//DTD SVG 1.1//EN" "http://www.w3.org/Graphics/SVG/1.1/DTD/svg11.dtd">
<svg version="1.1" id="Layer_1" xmlns="http://www.w3.org/2000/svg" xmlns:xlink="http://www.w3.org/1999/xlink" x="0px" y="0px"
	 viewBox="222 225 56 50" style="enable-background:new 222 225 56 50;" xml:space="preserve">
<path style="fill:#313344;" d="M222,225v50h56v-50H222z M250,275c-13.8,0-25-11.2-25-25c0-13.8,11.2-25,25-25c13.8,0,25,11.2,25,25
	C275,263.8,263.8,275,250,275z"/>
<g>
	<polygon style="fill:#313344;" points="242.119,252.168 238.492,252.168 237.977,256.818 241.95,260.791 246.636,260.27 
		246.643,256.667 242.113,256.673 	"/>
	<polygon style="fill:#313344;" points="252.813,240.82 251.099,239.106 239.194,251.011 242.622,251.005 	"/>
	<polygon style="fill:#313344;" points="247.799,256.104 247.793,259.537 259.662,247.669 257.948,245.955 	"/>
	<polygon style="fill:#313344;" points="253.667,241.674 243.282,252.065 243.276,255.51 246.685,255.504 257.094,245.101 	"/>
	
		<rect x="250.395" y="242.015" transform="matrix(-0.7071 -0.7071 0.7071 -0.7071 266.4413 595.0009)" style="fill:#313344;" width="12.109" height="0.608"/>
	<path style="fill:#313344;" d="M250,227c-12.7,0-23,10.3-23,23c0,12.7,10.3,23,23,23c12.7,0,23-10.3,23-23
		C273,237.3,262.7,227,250,227z M263.513,245.531l-1.284,1.284l-0.073,0.073l-1.599,1.599l-0.042,0.042l-12.844,12.844l-11.56,1.284
		l1.284-11.56l15.841-15.841c0.472-0.472,1.211-0.503,1.647-0.067l8.696,8.696C264.016,244.32,263.985,245.059,263.513,245.531z"/>
	
		<rect x="251.682" y="240.124" transform="matrix(-0.7071 -0.7071 0.7071 -0.7071 269.5478 593.7141)" style="fill:#313344;" width="12.109" height="1.816"/>
</g>
</svg>
