<?xml version="1.0" encoding="utf-8"?>
<!-- Generator: Adobe Illustrator 17.1.0, SVG Export Plug-In . SVG Version: 6.00 Build 0)  -->
<!DOCTYPE svg PUBLIC "-//W3C//DTD SVG 1.1//EN" "http://www.w3.org/Graphics/SVG/1.1/DTD/svg11.dtd">
<svg version="1.1" xmlns="http://www.w3.org/2000/svg" xmlns:xlink="http://www.w3.org/1999/xlink" x="0px" y="0px"
	 viewBox="40 87.5 420 325" enable-background="new 40 87.5 420 325" xml:space="preserve">
<g id="Calque_1" display="none">
	<g id="ECOMMERCE" display="inline">
		<g>
			<path fill="#313344" d="M252,87.5v42h-4v-42H40v325h208v-40h4v40h208v-325H252z"/>
		</g>
	</g>
	<g id="WORDPRESS" display="inline">
	</g>
</g>
<g id="Calque_3">
	<g id="Calque_4">
		<g>
			<path fill="#313344" d="M252,87.5v55H77c-1.1,0-2,0.9-2,2v9V378c0,0,8.4-15.9,29.7-17.5H123h45.4H241v4h-95.5l-41.3,0.1
				C84.6,364.9,71,393.3,71,390V144.5c0-3.3,2.7-6,6-6h171v-51H40v325h208v-52h175c1.1,0,2-0.9,2-2V338V181.5v-28v-9
				c0-1.1-0.9-2-2-2H259v-4h164c3.3,0,6,2.7,6,6v214c0,3.3-2.7,6-6,6H252v48h208v-325H252z M400.9,334.5c4.2,0,7.5,3.4,7.5,7.5
				s-3.4,7.5-7.5,7.5s-7.5-3.4-7.5-7.5S396.7,334.5,400.9,334.5z M372.3,334.5c4.2,0,7.5,3.4,7.5,7.5s-3.4,7.5-7.5,7.5
				s-7.5-3.4-7.5-7.5S368.1,334.5,372.3,334.5z M350.3,342c0,4.2-3.4,7.5-7.5,7.5s-7.5-3.4-7.5-7.5s3.4-7.5,7.5-7.5
				S350.3,337.9,350.3,342z M299.8,201.9c-0.1-12,9.4-21.8,21.4-21.9c12-0.1,21.8,9.4,21.9,21.4c0.1,12-9.4,21.8-21.4,21.9
				c-8.4,0.1-15.6-4.5-19.3-11.4l-78.6,33.1c0.8,2.6,1.2,5.3,1.3,8.1c0,2.9-0.4,5.7-1.1,8.3l60.1,24.5c3.1-6.1,9.4-10.2,16.8-10.3
				c10.6-0.1,19.2,8.3,19.4,18.9c0.1,10.6-8.3,19.2-18.9,19.4c-10.6,0.1-19.2-8.3-19.4-18.9c0-0.9,0.1-1.8,0.2-2.6l-60.8-24.7
				c-4.8,8.4-13.8,14.1-24.2,14.2c-15.6,0.2-28.4-12.3-28.6-27.9c-0.2-15.6,12.3-28.4,27.9-28.6c10.5-0.1,19.7,5.4,24.7,13.8
				l79.1-33.3C299.9,204.3,299.8,203.1,299.8,201.9z"/>
			<path fill="none" d="M196.4,225.1c-15.6,0.2-28.1,13-27.9,28.6c0.2,15.6,13,28.1,28.6,27.9c10.4-0.1,19.4-5.8,24.2-14.2
				l60.8,24.7c-0.1,0.9-0.2,1.7-0.2,2.6c0.1,10.6,8.8,19,19.4,18.9c10.6-0.1,19-8.8,18.9-19.4c-0.1-10.6-8.8-19-19.4-18.9
				c-7.3,0.1-13.6,4.3-16.8,10.3l-60.1-24.5c0.8-2.6,1.2-5.4,1.1-8.3c0-2.8-0.5-5.5-1.3-8.1l78.6-33.1c3.7,6.9,11,11.5,19.3,11.4
				c12-0.1,21.5-9.9,21.4-21.9c-0.1-12-9.9-21.5-21.9-21.4c-12,0.1-21.5,9.9-21.4,21.9c0,1.3,0.2,2.5,0.4,3.7L221,238.9
				C216,230.5,206.8,224.9,196.4,225.1z"/>
			<path fill="none" d="M400.9,349.5c4.2,0,7.5-3.4,7.5-7.5s-3.4-7.5-7.5-7.5s-7.5,3.4-7.5,7.5S396.7,349.5,400.9,349.5z"/>
			<path fill="none" d="M335.3,342c0,4.2,3.4,7.5,7.5,7.5s7.5-3.4,7.5-7.5s-3.4-7.5-7.5-7.5S335.3,337.9,335.3,342z"/>
			<g>
				<path fill="#313344" d="M372.2,335.8c-3.3,0-6,2.7-6,6s2.7,6,6,6s6-2.7,6-6S375.6,335.8,372.2,335.8z"/>
				<path fill="#313344" d="M342.8,336c-3.3,0-6,2.7-6,6s2.7,6,6,6s6-2.7,6-6S346.1,336,342.8,336z"/>
				<path fill="#313344" d="M400.9,336c-3.3,0-6,2.7-6,6s2.7,6,6,6s6-2.7,6-6S404.2,336,400.9,336z"/>
				<circle fill="#313344" cx="197" cy="253.3" r="23.1"/>
				<circle fill="#313344" cx="321.7" cy="201.8" r="18"/>
				<circle fill="#313344" cx="300.7" cy="294.4" r="15.3"/>
			</g>
		</g>
	</g>
</g>
</svg>
