<?xml version="1.0" encoding="utf-8"?>
<!-- Generator: Adobe Illustrator 17.1.0, SVG Export Plug-In . SVG Version: 6.00 Build 0)  -->
<!DOCTYPE svg PUBLIC "-//W3C//DTD SVG 1.1//EN" "http://www.w3.org/Graphics/SVG/1.1/DTD/svg11.dtd">
<svg version="1.1" id="Calque_1" xmlns:sketch="http://www.bohemiancoding.com/sketch/ns"
	 xmlns="http://www.w3.org/2000/svg" xmlns:xlink="http://www.w3.org/1999/xlink" x="0px" y="0px" viewBox="-91.5 -37.5 500 500"
	 enable-background="new -91.5 -37.5 500 500" xml:space="preserve">
<title>Slice 1</title>
<description>Created with Sketch (http://www.bohemiancoding.com/sketch)</description>
<g id="Page_1">
	<g id="Layer_1">
		<path id="Shape" d="M259.1-18h-29.4l30.6,33.2V31h-63V12.5h30.6l-30.6-33.2v-15.8h61.9V-18L259.1-18z M184.7-18h-29.4l30.6,33.2
			V31h-63V12.5h30.6l-30.6-33.2v-15.8h61.9V-18L184.7-18z M111.1-17.3H79.3v29h31.8V31H56.7v-67.6h54.3V-17.3L111.1-17.3z"/>
		<path id="Shape_1_" fill="#1572B6" d="M13.5,423.8l-32.3-362h354.6l-32.3,361.9L158.3,464L13.5,423.8z"/>
		<path id="Shape_2_" fill="#33A9DC" d="M158.5,433.2l117.3-32.5l27.6-309.3h-145V433.2z"/>
		<g id="Group" transform="translate(55.000000, 142.000000)">
			<path id="Shape_3_" fill="#FFFFFF" d="M103.5,80.6h58.7l4.1-45.5h-62.8V-9.3h0.2h111.2l-1.1,11.9L202.8,125h-99.3V80.6z"/>
			<path id="Shape_4_" fill="#EBEBEB" d="M103.8,195.9l-0.2,0.1l-49.4-13.4L51,147.2h-24H6.4l6.2,69.7l90.9,25.2l0.2-0.1V195.9z"/>
			<path id="Shape_5_" fill="#FFFFFF" d="M158.5,123.1l-5.3,59.5l-49.5,13.4v46.2l91-25.2l0.7-7.5l7.7-86.3H158.5z"/>
			<path id="Shape_6_" fill="#EBEBEB" d="M103.7-9.3v27.6V35v0.1H-3.4h-0.1l-0.9-10l-2-22.5L-7.6-9.3H103.7z"/>
			<path id="Shape_7_" fill="#EBEBEB" d="M103.5,80.6v27.6v16.7v0.1H54.8h-0.1l-0.9-10l-2-22.5l-1.1-11.9H103.5z"/>
		</g>
	</g>
</g>
</svg>
