<?xml version="1.0" encoding="utf-8"?>
<!-- Generator: Adobe Illustrator 17.1.0, SVG Export Plug-In . SVG Version: 6.00 Build 0)  -->
<!DOCTYPE svg PUBLIC "-//W3C//DTD SVG 1.1//EN" "http://www.w3.org/Graphics/SVG/1.1/DTD/svg11.dtd">
<svg version="1.1" id="Layer_1" xmlns="http://www.w3.org/2000/svg" xmlns:xlink="http://www.w3.org/1999/xlink" x="0px" y="0px"
	 viewBox="-150 -150 500 500" enable-background="new -150 -150 500 500" xml:space="preserve">
<g>
	
		<radialGradient id="SVGID_1_" cx="100" cy="102" r="167" gradientTransform="matrix(1 0 0 -1 0 202)" gradientUnits="userSpaceOnUse">
		<stop  offset="5.617980e-003" style="stop-color:#FBB7D4"/>
		<stop  offset="0.6742" style="stop-color:#E6360B"/>
		<stop  offset="1" style="stop-color:#891600"/>
	</radialGradient>
	<circle fill="url(#SVGID_1_)" cx="100" cy="100" r="167"/>
	<g>
		<path fill="#FFFFFF" d="M103.9,30.2C103.9,30.2,103.9,30.2,103.9,30.2C97.1,38.8,91.3,48.4,86.7,59L74.3,89.3
			c0,0.1-0.1,0.1-0.1,0.2c-3.9,11.2-7.7,20.4-10.8,26.6c0,0.1,0,0.1-0.1,0.2c-3.9,8.6-7.5,14.9-10.9,19.3c-4.1,5.1-8.4,8.6-13.3,11
			c-5.5,2.6-11.7,3.8-18.9,3.8c-2.6,0-4.7,2.1-4.7,4.7v38.4c0,2.6,2.1,4.7,4.7,4.7c28.6,0,52-11,69.6-32.8c5.2-6.8,9.7-14.2,14-22.5
			c0-0.1,0.1-0.2,0.1-0.3c0,0,7.4-16.8,9.3-21.2c5.3,0,41,0,41,0c2.6,0,4.7-2.1,4.7-4.7V78.5c0-2.6-2.1-4.7-4.7-4.7
			c0,0-13.5,0-21.7,0c1.7-3.5,3.4-6.6,5.2-9.3c3.1-4.8,6.2-8.4,9.1-10.7c0,0,0.1-0.1,0.2-0.1c3.6-3.1,7.2-5.2,11.4-6.6
			c4.6-1.6,9.6-2.4,15.2-2.4c2.6,0,4.7-2.1,4.7-4.7V2c0-2.6-2.1-4.7-4.7-4.7C144.8-2.7,121.4,8.4,103.9,30.2z"/>
		<path fill="#B12401" d="M173.5-7.3c-30.2,0-54.8,11.6-73.2,34.6c0,0,0,0,0,0c-7,8.9-13,18.9-17.7,29.8c0,0.1,0,0.1-0.1,0.2
			L70,87.5c-0.1,0.1-0.1,0.3-0.2,0.4c-4.9,13.9-8.5,21.9-10.6,26.1c0,0.1-0.1,0.2-0.1,0.3c-3.7,8.2-7.1,14.2-10.3,18.3
			c-3.7,4.6-7.4,7.6-11.7,9.7c-4.9,2.3-10.4,3.4-17,3.4c-5.2,0-9.3,4.2-9.3,9.3v38.4c0,5.2,4.2,9.3,9.3,9.3
			c30,0,54.7-11.6,73.2-34.6c0.1-0.1,0.1-0.2,0.2-0.2c5.3-7,10-14.5,14.4-23.1c0.1-0.2,0.2-0.3,0.3-0.5l8.1-18.4h37.9
			c5.2,0,9.3-4.2,9.3-9.3V78.5c0-5.2-4.2-9.3-9.3-9.3h-13.8c0.4-0.7,0.8-1.4,1.3-2.1c0,0,0,0,0,0.1c2.9-4.4,5.6-7.6,8.1-9.6
			c0.1-0.1,0.2-0.2,0.3-0.2c3.1-2.7,6.3-4.5,9.9-5.8c4.1-1.4,8.6-2.1,13.6-2.1c5.2,0,9.3-4.2,9.3-9.3v-38
			C182.8-3.1,178.6-7.3,173.5-7.3L173.5-7.3z M20.2,155.1c8.1,0,15-1.5,21-4.3c5.4-2.6,10.3-6.6,15-12.4c3.7-4.9,7.5-11.6,11.4-20.2
			c3-6,6.7-15,11.1-27.2L91,60.9c4.9-11.2,10.7-20.4,16.5-27.7C124.2,12.3,146.1,2,173.5,2v38l0,0l0,0c-6.4,0-11.8,0.9-16.7,2.6
			c-4.9,1.7-9,4.1-12.9,7.5c-3.6,2.8-6.9,6.9-10.1,11.8c-3,4.7-5.8,10.1-8.6,16.5h9.3l0,0h0.9l0,0h18.8v38.2l0,0l0,0h-44l-10.5,24
			c-4.3,8.4-8.8,15.5-13.5,21.7c-16.7,20.6-38.6,31.1-66,31.1V155.1L20.2,155.1L20.2,155.1z"/>
	</g>
</g>
<g>
	<path d="M-35.6-149h46.9v16h-28.2v7.1H9.2v14.6h-26.2V-93h-18.7V-149z"/>
	<path d="M15.6-149h18.7v40h26.3v16h-45V-149z"/>
	<path d="M84.3-149.4h18.6L126.4-93h-20.3l-3-7.5H83.6L80.7-93h-20L84.3-149.4z M98.5-113.8l-5.1-13.6l-5.1,13.6H98.5z"/>
	<path d="M123.3-101.4l10-11.9c6.1,4.6,13,6.6,19.6,6.6c3.4,0,4.8-0.9,4.8-2.4v-0.2c0-1.6-1.8-2.5-7.8-3.7
		c-12.6-2.6-23.6-6.2-23.6-18v-0.2c0-10.6,8.3-18.9,23.8-18.9c10.8,0,18.8,2.6,25.3,7.7l-9.1,12.6c-5.3-3.8-11.6-5.5-16.8-5.5
		c-2.8,0-4.1,1-4.1,2.3v0.2c0,1.5,1.5,2.5,7.4,3.6c14.3,2.6,23.9,6.8,23.9,18.1v0.2c0,11.8-9.7,19-24.7,19
		C140.7-91.9,130.4-95.1,123.3-101.4z"/>
	<path d="M181.1-149h18.7v19.8h17.1V-149h18.7v56h-18.7V-113h-17.1V-93h-18.7V-149z"/>
</g>
</svg>
