<?xml version="1.0" encoding="iso-8859-1"?>
<!-- Generator: Adobe Illustrator 16.0.4, SVG Export Plug-In . SVG Version: 6.00 Build 0)  -->
<!DOCTYPE svg PUBLIC "-//W3C//DTD SVG 1.1//EN" "http://www.w3.org/Graphics/SVG/1.1/DTD/svg11.dtd">
<svg version="1.1" id="Capa_1" xmlns="http://www.w3.org/2000/svg" xmlns:xlink="http://www.w3.org/1999/xlink" x="0px" y="0px"
	 width="53.095px" height="32.573px" viewBox="0 0 53.095 32.573" style="enable-background:new 0 0 53.095 32.573;"
	 xml:space="preserve">
<path d="M51.951,1.604c-0.958,0-2.083,0.708-4.458,2.167c-2.375,1.458-5.583,3.583-5.583,3.583s-0.875-0.708-2.042-1.208
	s-1.917-0.042-2.792,0.666c-0.875,0.709-0.875,2-1.167,1.584c-0.292-0.417-1.833-0.375-3.542,0.25s-1.667,2.625-1.667,2.625
	c-1.208-0.167-2.208,0.625-2.625,1.083c-0.417,0.458-0.125,2.167-0.458,1.75s-1.708-0.75-2.917-0.75
	c-1.208,0-2.417,0.292-3.708,1.333c-1.292,1.042-0.542,4.584-0.75,4.667s-0.25-0.458-0.625-1.5s-0.917-1.167-2.083-1
	c-1.167,0.167-2.5,2.292-2.75,2.542s-0.5-0.125-1.792-0.042s-1.875,0.625-2.458,1.292c-0.583,0.666-1.125,0.458-2.542,1.166
	c-1.417,0.709-1.667,3.417-1.833,4.375c-0.167,0.959-3.667,3.125-4.75,4c-1.083,0.875-1.886,1.852-1.083,2.334
	c0.833,0.5,7-2.792,7.625-3.25c0.625-0.459,0.25-0.625,1.083-0.75c0.833-0.125,1,0.458,1.333,0.833s0.542,0.042,1.083,0.042
	c0.542,0,0.583,0.333,1.25,1.166c0.667,0.834,3.208,0.625,4.625-0.625c1.417-1.25,1.333-4.958,1.333-4.958s0.917-0.125,2.625-0.875
	c1.708-0.75,1.208-1.75,1.292-2.292c0.083-0.541,2.75,0.167,4.458-0.583c1.708-0.75,1.583-3.042,1.583-3.042
	s2.208,0.959,3.708,1.209s0.75-1.5,1.458-2.084c0.708-0.583,2.583,0.625,3.917,1.042c1.333,0.417,1.167-1.917,1.167-2.417
	s0.25-0.5,0.875-0.5s2.417,0.334,3.958-1.291c1.542-1.625,0.458-4,0.417-4.209c-0.042-0.208,0.875-0.625,3.292-2.083
	c2.417-1.458,3.792-2.375,5.042-3.667C53.701,2.896,52.909,1.604,51.951,1.604z M17.159,26.854c-0.167,0.75-0.708,2.75-2.083,2.792
	c-1.375,0.041-1.958-0.834-2.708-1.25c-0.75-0.417-1.333-0.584-2.292-0.5c-0.847,0.073-2.667-0.917-2.708-1.875
	c-0.042-0.959-0.375-2.917,1.5-3.5c1.875-0.584,2.708-1.334,3.417-1.875c0.708-0.542,1.583-0.625,2.333,0.25
	s2.208,2.541,2.583,3.333S17.326,26.104,17.159,26.854z M21.326,22.771c-0.5,0.458-1.042,0.666-1,0.5
	c0.042-0.167,0.792-0.75,0.5-0.917c-0.292-0.167-1.083,0.708-1.792,1c-0.708,0.292-1.375,0.083-0.75-0.417s1.917-1.166,1.667-1.708
	s-0.75,0.125-1.5,0.625s-1.25,0.708-1.458,0.5s0.833-1.125,1.125-1.25s0.75-0.417,0.583-0.625c-0.167-0.208-1,0.208-1.458,0.5
	s-0.542,0.458-0.667,0.25s0.542-0.833,1-1.167c0.458-0.333,0.583-0.333,0.458-0.5c-0.125-0.166-1.25,0.417-1.25,0.417
	c-0.542,0.292-1.167,0.333-0.542-0.5s1.625-1.375,1.917-1.5c0.292-0.125,1,0.083,0.917,0.75c-0.083,0.667-0.375,1.042,0.25,1.417
	s2.25,0.625,2.292,1.291C21.659,22.104,21.826,22.312,21.326,22.771z M27.201,19.521c-0.625,0.916-1.5,1.458-2.625,1.291
	c-1.125-0.166-1.375-0.25-1.583-0.208s-0.833-0.083-1.417-0.708c-0.182-0.195-0.583-1.209-0.25-2.625
	c0.333-1.417,0.958-2.334,2.25-2.75c1.292-0.417,2.917-0.125,3.542,1.125S27.826,18.604,27.201,19.521z M32.492,14.604
	c-0.333,0.833-0.667,1.25-0.5,1.667c0.167,0.416,0.417,0.708,0.25,0.875c-0.167,0.166-0.875,0.458-1.292,0.666
	c-0.417,0.209-1.25-0.041-0.875-0.5c0.375-0.458,1.417-1.125,1.292-1.375s-0.833-0.166-1.417,0.125
	c-0.583,0.292-1,0.792-1.208,0.417s1.042-0.958,1.542-1.417c0.5-0.458,1.083-0.625,0.875-0.791c-0.208-0.167-1.25,0.166-1.667,0.458
	s-1,0.125-0.417-0.458c0.271-0.272,1.333-1.292,1.542-1.042s0.542,0.583,0.667,0.292c0.125-0.292,0.042-0.875,0.667-0.625
	S32.826,13.771,32.492,14.604z M37.951,16.021c-0.125,0.5-0.083,1.041-0.583,1.041s-1.708-0.375-2.042-0.625
	c-0.333-0.25-0.417-0.583-0.792-0.583s-1.375,0.792-1.25,0.083c0.125-0.708,0.625-2.458,0.333-2.791
	c-0.469-0.536-1.833-2.084-1.042-2.834c0.792-0.75,2-0.958,2.583-0.875c0.583,0.084,1.625,1.25,1.625,2.292s0.042,1.75,0.542,2.667
	C37.826,15.312,38.076,15.521,37.951,16.021z M43.159,12.688c-0.333,0.709-0.458,0.834-1.292,1c-0.833,0.167-2,0.459-1.75,0.292
	s1.917-1.417,1.667-1.708c-0.25-0.292-0.958,0.375-1.833,0.916c-0.875,0.542-0.958,0.917-1.417,0.667
	c-0.458-0.25-0.083-0.75,0.792-1.375s1.875-1.5,1.75-1.667c-0.125-0.166-1.292,0.5-1.917,0.959c-0.625,0.458-0.958,0.833-1.167,0.5
	c-0.208-0.334,0.042-0.959,0.708-1.334c0.667-0.375,2.083-1.041,1.833-1.541s-1.292,0.375-2.042,0.791
	c-0.75,0.417-1.167,0.292-1.333,0c-0.167-0.291-0.333-0.541,0.333-1c0.667-0.458,1.458-0.541,1.292-0.916
	c-0.167-0.375-0.75,0.041-1.208-0.084c-0.18-0.049,0.458-1.25,1.458-1s1.708,0.584,1.667,1c-0.042,0.417,0.125,1.834,0.708,1.959
	c0.583,0.125,1.208-0.292,1.667,0.125C43.534,10.688,43.492,11.979,43.159,12.688z M10.951,18.896
	c0.833-0.459,0.042-1.375-0.542-2.084c-0.583-0.708,0.083-1.416,0.875-2c0.792-0.583,1.042-0.791,1.125-2.25
	c0.083-1.458-1.208-5.666-1.875-5.25c-0.667,0.417,0.125,3.709,0.708,4.959s-1.333,1.916-2.125,2.75
	c-0.792,0.833,0.042,2.208,0.667,3.041C10.409,18.896,10.685,19.042,10.951,18.896z M17.617,14.396c-0.5,0.625-0.184,0.83,0.25,1
	c0.958,0.375,1.458-1.084,1.583-2.334s-0.5-1.208-1.042-2.125c-0.542-0.916-0.083-1.833,0.417-2.791c0.5-0.959,0.167-1.875-0.25-2
	c-0.417-0.125-0.25,0.166-1.208,2c-0.958,1.833-0.25,2.958,0.417,3.833C18.451,12.854,18.117,13.771,17.617,14.396z M23.034,9.104
	c0.208,1.208,1.199,2.402,1.75,2.333c0.667-0.083,0.458-0.75-0.25-1.75c-0.708-1,0-1.916,0.708-3.125
	c0.708-1.208-0.625-3.958-1.208-3.5c-0.583,0.459,0.25,2.584,0.042,3.334C23.867,7.146,22.826,7.896,23.034,9.104z M30.201,4.729
	c0.667,0.917,0.208,1.458-0.417,2.5s0.17,1.662,0.458,1.708c1.042,0.167,0.875-1.375,1.292-2.5c0.417-1.125,0.458-1.583-0.917-2.791
	c-1.375-1.209-0.292-3.25-0.542-3.542s-0.667-0.042-1.417,1.625S29.534,3.812,30.201,4.729z M35.992,5.604
	c0.542-0.042,0.333-0.75,0.333-1.458c0-0.709,0.542-2.625-0.292-2.5C35.201,1.771,35.397,5.65,35.992,5.604z"/>
<g>
</g>
<g>
</g>
<g>
</g>
<g>
</g>
<g>
</g>
<g>
</g>
<g>
</g>
<g>
</g>
<g>
</g>
<g>
</g>
<g>
</g>
<g>
</g>
<g>
</g>
<g>
</g>
<g>
</g>
</svg>
