<?xml version="1.0" encoding="utf-8"?>
<!-- Generator: Adobe Illustrator 17.1.0, SVG Export Plug-In . SVG Version: 6.00 Build 0)  -->
<!DOCTYPE svg PUBLIC "-//W3C//DTD SVG 1.1//EN" "http://www.w3.org/Graphics/SVG/1.1/DTD/svg11.dtd">
<svg version="1.1" id="Layer_1" xmlns="http://www.w3.org/2000/svg" xmlns:xlink="http://www.w3.org/1999/xlink" x="0px" y="0px"
	 viewBox="0 0 32 32" enable-background="new 0 0 32 32" xml:space="preserve">
<g>
	<path fill="#FFFFFF" d="M7.2,17.5V22c0,0,3.8,4.2,9.2,4.2c6.8,0,9.2-4.2,9.2-4.2v-4.9l-7.9,4.6c-0.6,0.3-1.3,0.4-1.9,0.1L7.2,17.5z
		"/>
	<path fill="#FFFFFF" d="M16.6,12.1c-1,0-2-0.2-2.5-0.6l-9.5,3.3l11.3,5.7c0.6,0.3,1.3,0.3,1.8-0.1l13.2-7.7c0.6-0.4,1-1,1-1.7
		c0-0.7-0.4-1.4-1.1-1.7L17.2,2.4c-0.6-0.3-1.3-0.3-1.8,0.1L2.1,10.2c-0.6,0.4-1,1-1,1.7c0,0.7,0.4,1.4,1.1,1.7l0,7
		c-0.7,0.2-1.2,0.9-1.2,1.7c0,0.6,0.3,1.1,0.7,1.4c-0.1,1-0.6,1.7-1.1,2.2c-0.4,0.4-0.7,1-0.6,1.5c0,0.6,0.3,1.1,0.8,1.5l0.2,0.2
		c0.4,0.3,1,0.4,1.6,0.3s1-0.5,1.3-0.9c0.9-1.7,0.5-3.8,0.2-4.8c0.3-0.3,0.5-0.8,0.5-1.2c0-0.8-0.5-1.4-1.2-1.6l0-6.7l10.3-3.6
		c0.1-0.4,0.5-0.8,0.5-0.8c0,0.1,0,1.6,2.2,1.6c1.3,0,2.3-0.4,2.3-1.2c0-0.1,0-0.3-0.1-0.5c0.4,0.4,0.6,0.9,0.6,1.3
		C19.3,11.6,18.1,12.1,16.6,12.1z"/>
</g>
</svg>
