<?xml version="1.0" encoding="utf-8"?>
<!-- Generator: Adobe Illustrator 17.1.0, SVG Export Plug-In . SVG Version: 6.00 Build 0)  -->
<!DOCTYPE svg PUBLIC "-//W3C//DTD SVG 1.1//EN" "http://www.w3.org/Graphics/SVG/1.1/DTD/svg11.dtd">
<svg version="1.1" id="Layer_1" xmlns="http://www.w3.org/2000/svg" xmlns:xlink="http://www.w3.org/1999/xlink" x="0px" y="0px"
	 viewBox="-234 -234 500 500" enable-background="new -234 -234 500 500" xml:space="preserve">
<path d="M2.5-50.5c-5.8,5.8,1.7,28.2,1.9,59.2c0.2,31-54.1,64.2-58.9,69.1c-5.5,5.5-92.9,92.9-92.9,92.9l0,0
	c-0.1,0.1-0.1,0.1-0.2,0.2c-5.1,5.2-5.1,13.5,0,18.6c5.1,5.2,13.5,5.2,18.6,0c0.1-0.1,0.1-0.2,0.2-0.2c0.1-0.1,86.4-86.4,92.8-92.7
	C-30.6,91,4.3,36.2,33,37.7c28.7,1.5,56.1,5.7,59.7,2c6.3-6.3,89.4-88.2,89.4-88.2l1.4-10.8l-39.8-39.8l-2.5-2.5l-39.8-39.8
	l-10.8,1.4C90.6-139.9,8.8-56.8,2.5-50.5z M148.5-56.6l9.4,9.4L95,15.6l-9.4-9.4L148.5-56.6z M129.6-75.5l9.4,9.4L76.2-3.2l-9.4-9.4
	L129.6-75.5z M109.8-95.3l9.4,9.4L56.4-23L47-32.4L109.8-95.3z M91-114.1l9.4,9.4L37.5-41.9l-9.4-9.4L91-114.1z"/>
<g>
	<path d="M-151.2-204.8v-0.2c0-16.7,13-29.2,29.8-29.2c12.3,0,20.6,6,25.4,14.6l-15.4,9c-2.1-4-5-6.8-10.2-6.8
		c-6.3,0-10.5,5.5-10.5,12.2v0.2c0,7.3,4.3,12.4,10.5,12.4c5.3,0,8.2-2.9,10.6-7l15.4,8.7c-4.7,8.3-12.6,15.1-26.5,15.1
		C-137.7-175.8-151.2-187.5-151.2-204.8z"/>
	<path d="M-92.6-202.1V-233h19v30.6c0,7,3.6,9.9,8.6,9.9c5,0,8.6-2.7,8.6-9.5v-31h19v30.5c0,19.1-11.1,26.6-27.8,26.6
		S-92.6-183.6-92.6-202.1z"/>
	<path d="M-31.2-233h18.7v56h-18.7V-233z"/>
	<path d="M-10.5-185.4l10-11.9c6.1,4.6,13,6.6,19.6,6.6c3.4,0,4.8-0.9,4.8-2.4v-0.2c0-1.6-1.8-2.5-7.8-3.7
		c-12.6-2.6-23.6-6.2-23.6-18v-0.2c0-10.6,8.3-18.9,23.8-18.9c10.8,0,18.8,2.6,25.3,7.7l-9.1,12.6c-5.3-3.8-11.6-5.5-16.8-5.5
		c-2.8,0-4.1,1-4.1,2.3v0.2c0,1.5,1.5,2.5,7.4,3.6c14.3,2.6,23.9,6.8,23.9,18.1v0.2c0,11.8-9.7,19-24.7,19
		C6.8-176-3.4-179.2-10.5-185.4z"/>
	<path d="M47.4-233h18.7v56H47.4V-233z"/>
	<path d="M72.7-233h17.5l19.9,24.7V-233h18.6v56H112l-20.8-25.8v25.8H72.7V-233z"/>
	<path d="M135.1-233h47.8v15.4h-29.4v5.7h27.4v13.5h-27.4v6.1h29.8v15.4h-48.2V-233z"/>
</g>
</svg>
