<?xml version="1.0" encoding="utf-8"?>
<!-- Generator: Adobe Illustrator 17.1.0, SVG Export Plug-In . SVG Version: 6.00 Build 0)  -->
<!DOCTYPE svg PUBLIC "-//W3C//DTD SVG 1.1//EN" "http://www.w3.org/Graphics/SVG/1.1/DTD/svg11.dtd">
<svg version="1.1"
	 id="svg2" inkscape:export-ydpi="90" inkscape:output_extension="org.inkscape.output.svg.inkscape" sodipodi:version="0.32" inkscape:export-xdpi="90" sodipodi:docname="elephpant2.svg" sodipodi:docbase="C:\Documents and Settings\Administrador\Mis documentos\Web_Enthusiast\Inkscape\my_inkscape" inkscape:version="0.45.1" inkscape:export-filename="C:\Documents and Settings\Administrador\Mis documentos\Web_Enthusiast\Inkscape\my_inkscape\elephpant2.png" xmlns:dc="http://purl.org/dc/elements/1.1/" xmlns:rdf="http://www.w3.org/1999/02/22-rdf-syntax-ns#" xmlns:svg="http://www.w3.org/2000/svg" xmlns:cc="http://web.resource.org/cc/" xmlns:inkscape="http://www.inkscape.org/namespaces/inkscape" xmlns:sodipodi="http://sodipodi.sourceforge.net/DTD/sodipodi-0.dtd"
	 xmlns="http://www.w3.org/2000/svg" xmlns:xlink="http://www.w3.org/1999/xlink" x="0px" y="0px" viewBox="0 0 500 500"
	 enable-background="new 0 0 500 500" xml:space="preserve">
<filter  width="1.417002" height="1.0542439" inkscape:collect="always" y="-0.027121934" x="-0.20850102" id="filter9871">
	<feGaussianBlur  inkscape:collect="always" stdDeviation="0.69332087" id="feGaussianBlur9873"></feGaussianBlur>
</filter>
<filter  inkscape:collect="always" id="filter8877">
	<feGaussianBlur  inkscape:collect="always" stdDeviation="1.6170501" id="feGaussianBlur8879"></feGaussianBlur>
</filter>
<filter  width="1.2839019" height="1.0577668" inkscape:collect="always" y="-0.028883385" x="-0.14195097" id="filter8857">
	<feGaussianBlur  inkscape:collect="always" stdDeviation="2.3701044" id="feGaussianBlur8859"></feGaussianBlur>
</filter>
<filter  width="1.2268261" height="1.060884" inkscape:collect="always" y="-0.030442012" x="-0.11341306" id="filter11851">
	<feGaussianBlur  inkscape:collect="always" stdDeviation="0.27033207" id="feGaussianBlur11853"></feGaussianBlur>
</filter>
<filter  width="1.2450974" height="1.0596897" inkscape:collect="always" y="-0.029844827" x="-0.12254869" id="filter10860">
	<feGaussianBlur  inkscape:collect="always" stdDeviation="0.28967779" id="feGaussianBlur10862"></feGaussianBlur>
</filter>
<sodipodi:namedview  width="500px" height="300px" inkscape:document-units="px" inkscape:pageopacity="0.0" inkscape:pageshadow="2" inkscape:current-layer="layer1" inkscape:cy="150" inkscape:zoom="1.72" objecttolerance="10000" inkscape:cx="250" pagecolor="#ffffff" bordercolor="#666666" guidetolerance="10" gridtolerance="10000" id="base" showguides="true" borderopacity="1.0" inkscape:object-paths="true" inkscape:object-points="false" inkscape:object-nodes="false" inkscape:guide-bbox="true" inkscape:window-y="-4" inkscape:window-x="-4" inkscape:window-height="712" inkscape:window-width="1024">
	</sodipodi:namedview>
<g id="layer1" inkscape:label="Layer 1" inkscape:groupmode="layer">
	
		<path id="path7075" sodipodi:nodetypes="czccczzssczscsccczzzzszzsccczccczzzzszzczzszcccszzzzzzzz" fill="#7689C4" stroke="#000000" stroke-width="6" stroke-linejoin="round" d="
		M52.8,374c-8.4,1-15.3-0.5-22.7-10.8c-7.6-10.5-6.3-33.7-5.9-50.3c-0.8-23.8,0.1-47.5,2.5-71.2c0.8-6.7,11.4-62,11.4-62
		s4.1-17.5,6.9-26.3c2.8-8.9,3.9-9.4,6.3-11.9c2.1-2.2,7.9-5.9,19.4-8c11-2.1,19.4-3.3,26-3.7c6.6-0.4,41.7-0.2,41.7-0.2
		c20.7-12.2,30-16.5,39.6-19.6c9.6-3.1,16-3.2,23.3-0.7c7.2,2.5,8.7,6.9,12.5,11.4c21.9-5,49.4-6.6,77-5.2s59,15.7,80.9,31l39.1,0.6
		l33.8,0c0,0,13.9-8.2,17.7-9.7c3.6-1.5,9-2.5,11-0.8c2,1.7,0.9,3.6,0.2,6.9c-0.7,3.3,2.8,3.1,2.7,8.6c-0.1,4.7-2.9,3.8-4.1,5.7
		c-1.2,1.9,0.3,4.5-0.8,6.2c-1.1,1.6-3.1,1.6-5.4,1.6c-2.3,0-5-0.6-7.2-1.7c-4.4-2.2-11.2-4.8-11.2-4.8l-35.9-0.5l-28.4,0.4
		c11,15.5,16.1,33.7,15.8,57.6c-0.3,23.8-9.1,38.1-20.1,58.7l0.1,35.6l0.8,18.3c1,10.7,0.9,27.3-0.3,31.9c-1.2,4.7-2.7,6.4-9.7,9.9
		s-9.4,3.3-19.1,4c-9.7,0.7-13.1,0.1-19.8-1.1c-6.7-1.2-12.3-3.8-14-9.3c-1-3.1-5.6-0.9-10.6-3.1c-4.9-2.1-10.7-5.3-12.5-10.7
		c-1.7-5.3-0.5-19.4-1.1-30.6c0,0-24.6,1.9-36.4,1.8c-11.6-0.1-35.3-3-37.4-6.4c-2.1-3.4-1,12.6-0.9,19.6c0.1,7,0.9,26.6-1.5,41.1
		c-2.4,14.6-32.2,13.2-46.7,13.4c-13.4,0.4-26.2-10.9-24.9-16.3l-0.1-7.5c0,0-6.9-1.5-9.8-3s-10.5-5.7-11.7-10.3
		c-1.2-4.5,0.6-42.4,0.4-48.8c-0.2-6.3-0.3-8.3-1.1-12.5c-0.8-4.1-8.9-27.5-20.2-29.1c-12.1-1.7-22.6,2.6-31.6,12.7
		c-9,10-13.8,24.5-14.4,36.2c-0.6,11.8-1.1,22.7,0.3,33.7C57.8,355.8,61.2,372.9,52.8,374z"/>
	<g id="path10864" sodipodi:nodetypes="cczczc" filter="url(#filter9871)">
		<path fill="#43599D" d="M314.1,314c5.1,0.6,2.6,42.4,2.6,42.4c0,3.9-7.1-0.3-12.8-0.3c-5.7,0-8.7-3.4-8.7-7.3
			c0,0,2.8-32.7-0.7-29.8C291,322,304.6,312.8,314.1,314z"/>
	</g>
	<path id="path8002" sodipodi:nodetypes="czczzzzzcscc" d="M94.9,259.5c0,0,18.4-9.9,22.6-19.4c4.1-9.4,5-24.7,5-24.7
		s-4.9,1.3-7.3,0c-2.4-1.3-4.8-4.3-2.4-5.2c2.4-0.9,7.6,3.7,11.9,1.6s3.6-9.3,5.2-9.9c1.6-0.7,2,4,1.1,7.2c-0.9,3.2-4.6,5.5-4.6,5.5
		c-1.4,10.6-2,19-5.1,28c-3.5,10.2-12.5,19.5-12.5,19.5L94.9,259.5z"/>
	<g id="g19698">
		<path id="path12849" sodipodi:nodetypes="czssssczzz" d="M81.4,174.8c-2,1.4-5.3,5.6-6.2,7.8s-1.3,4.9-0.6,7.4
			c1.4,5.2,8.2,7.8,15.1,5.9c6.9-1.9,11.3-7.6,9.9-12.8c-1.4-5.2-8.1-7.8-15-6c-0.9,0.3-1.1,0.3-1.9,0.7c0.3-0.7,1.7-2,3.1-2.8
			c1.4-0.8,6-2.5,3.8-3.6C87.4,170.6,83.4,173.5,81.4,174.8z"/>
		<path id="path16735" fill="#FFFFFF" d="M96.6,184.1c1,3.7-2.2,7.9-7.2,9.2c-5,1.4-9.9-0.6-10.9-4.3c-1-3.7,2.2-7.9,7.2-9.2
			C90.7,178.4,95.5,180.3,96.6,184.1z"/>
		
			<path id="path16738" sodipodi:cx="119.74085" sodipodi:ry="3.7391522" sodipodi:rx="4.6189528" sodipodi:cy="94.830513" sodipodi:type="arc" d="
			M94.6,183.2c2.2,1.8,2.1,5.5-0.2,8.2c-2.3,2.7-5.9,3.4-8.1,1.6s-2.1-5.5,0.2-8.2S92.4,181.4,94.6,183.2z"/>
		
			<path id="path16740" sodipodi:cx="119.74085" sodipodi:ry="3.7391522" sodipodi:rx="4.6189528" sodipodi:cy="94.830513" sodipodi:type="arc" fill="#FFFFFF" d="
			M90,184.6c0.7,0.6,0.6,1.7,0,2.5c-0.7,0.8-1.8,1-2.4,0.5s-0.6-1.7,0-2.5S89.3,184,90,184.6z"/>
	</g>
	<path id="rect16758" sodipodi:nodetypes="czszzz" d="M76.7,155.2c3.4-1,7.9,0.2,11.7,0.6c3.8,0.4,7.1,1.1,7.1,3.9
		s-8.8,0.4-12.9,0.9c-4,0.5-6.8,2.9-8.9,1.8C71.6,161.2,73.3,156.2,76.7,155.2z"/>
	<g id="rect8881" sodipodi:nodetypes="ccsccc" filter="url(#filter9871)">
		<path fill="#43599D" d="M145.3,298.7l-1.2,49.2c0,5.9-2,10.6-4.5,10.6c-2.5,0-4.5-4.7-4.5-10.6c0,0-7.5-57.1-12.2-64.6
			C119.2,276.5,144.8,292.3,145.3,298.7z"/>
	</g>
	<path id="rect19668" d="M145.7,288.2L145.7,288.2c1.3,0,2.4,1.1,2.4,2.4v75.4c0,1.3-1.1,2.4-2.4,2.4h0c-1.3,0-2.4-1.1-2.4-2.4
		v-75.4C143.2,289.3,144.3,288.2,145.7,288.2z"/>
	<path id="rect19670" sodipodi:nodetypes="cccczc" d="M129.7,133.1l16.5-10.4c3.3-2.1,7.1-2.3,8.7-0.6l-15,11.2
		c-5.6,4.7-8.9,9-12.2,7.4C124.2,139,126.4,135.2,129.7,133.1z"/>
	<path id="path20675" sodipodi:nodetypes="czzz" d="M145.5,299.5c-5.4,0-17.6-13.4-17.2-17c0.4-3.5,14.5,8.1,16.6,9.6
		C146.9,293.3,150.8,299.5,145.5,299.5z"/>
	<path id="path21646" sodipodi:nodetypes="csszszz" d="M215.9,322.7c-1.8,1.1-1.8,0.8-2-2.2c-0.1-2.6-1.3-5.9-3.2-9.7
		c-2.3-4.7-2-9.8-0.2-10.1c0.9-0.2,3.1,1.7,6.7,7.7c1.7,2.8,5.2,5.5,6.1,5.7C224.4,314.2,217.8,321.6,215.9,322.7z"/>
	<path id="path21648" inkscape:transform-center-x="-1.4700359" sodipodi:nodetypes="czzz" d="M145,315c2.8,4.2,18.9,5.3,21,2.7
		c2-2.5-11.3-4.3-13.7-4.6C149.9,312.8,142.3,310.9,145,315z"/>
	
		<path id="path21650" inkscape:transform-center-y="0.12003532" inkscape:transform-center-x="-1.4564345" sodipodi:nodetypes="ccc" d="
		M144.7,323.7c1.2,1.4,17.8,3.2,18,0.1C162.9,320.7,142.3,319.5,144.7,323.7z"/>
	
		<path id="path21652" inkscape:transform-center-y="0.16420938" inkscape:transform-center-x="-0.95467443" sodipodi:nodetypes="czzz" d="
		M317.1,317.3c2.5,2.1,12,0.2,12.8-1.8c0.8-1.9-9-1.6-10.4-1.8C318.2,313.6,314.6,315.2,317.1,317.3z"/>
	
		<path id="path21654" inkscape:transform-center-y="0.19158506" inkscape:transform-center-x="-0.9515249" sodipodi:nodetypes="czzz" d="
		M317.7,323.1c2.5,2.1,12,0,12.8-2c0.8-1.9-9-1.5-10.4-1.6C318.8,319.4,315.3,321,317.7,323.1z"/>
	
		<path id="path21656" inkscape:transform-center-y="2.6050942" inkscape:transform-center-x="1.7620125" sodipodi:nodetypes="czzz" d="
		M374.3,285.5c4.5-2.3,7.4-13.9,5.2-15.5c-2.1-1.5-7.6,10.1-8.6,11.7C369.9,283.2,369.9,287.8,374.3,285.5z"/>
	<path id="rect21658" sodipodi:nodetypes="czzzz" d="M444.9,146.7c1.3-1.1,4.2,2.8,4.2,5.8c0.1,3-1.1,6.5-4.6,6.7
		c-3.5,0.2,0.4-4.2,0.4-6.6C444.9,150.3,443.6,147.8,444.9,146.7z"/>
	<path id="rect21661" d="M452.6,152.4l13.1,4.7c3.6,1.3,6.3,3.1,6.1,4.1l0,0c-0.2,1-3.3,0.7-6.9-0.6l-13.1-4.7
		c-3.6-1.3-6.3-3.1-6.1-4.1l0,0C445.9,150.9,449,151.2,452.6,152.4z"/>
	<path id="rect21663" d="M453.1,150.9l13.1-4.7c3.6-1.3,6.3-3.1,6.1-4.1v0c-0.2-1-3.3-0.7-6.9,0.6l-13.1,4.7
		c-3.6,1.3-6.3,3.1-6.1,4.1v0C446.4,152.4,449.5,152.1,453.1,150.9z"/>
	<path id="rect21665" d="M453.7,153.7l13.8-1.1c3.8-0.3,6.9-1.4,6.9-2.4l0,0c0-1-3.1-1.5-6.9-1.2l-13.8,1.1
		c-3.8,0.3-6.9,1.4-6.9,2.4l0,0C446.8,153.5,449.9,154.1,453.7,153.7z"/>
	<g id="g24579">
		<path id="rect21667" sodipodi:nodetypes="cccsccc" d="M153.1,340.9c3.4,0,6.1,5,6.1,11.3V375c0,6.3,0.7,11.5-6.1,11.3
			c-3.4-0.1-6.1-5-6.1-11.3v-22.8C147,346,149.7,340.9,153.1,340.9z"/>
		<path id="path23608" sodipodi:nodetypes="cccsccc" fill="#7689C4" d="M152,345.3c2.4,0,4.4,4,4.4,8.9v18c0,4.9,0.5,9.1-4.4,8.9
			c-2.4-0.1-4.4-4-4.4-8.9v-18C147.6,349.3,149.6,345.3,152,345.3z"/>
	</g>
	<g id="g24583" transform="matrix(1,0,0,0.998347,9.2647262,4.2393518)">
		<path id="path24585" sodipodi:nodetypes="cccsccc" d="M154.9,341.9c3.4,0,6.1,5,6.1,11.3v22.8c0,6.3,0.7,11.5-6.1,11.3
			c-3.4-0.1-6.1-5-6.1-11.3v-22.8C148.7,346.9,151.5,341.9,154.9,341.9z"/>
		<path id="path24587" sodipodi:nodetypes="cccsccc" fill="#7689C4" d="M153.8,346.2c2.4,0,4.4,4,4.4,8.9v18c0,4.9,0.5,9.1-4.4,8.9
			c-2.4-0.1-4.4-4-4.4-8.9v-18C149.4,350.2,151.3,346.2,153.8,346.2z"/>
	</g>
	<g id="g24589" transform="matrix(1.2252401,0,0,0.8880717,-18.910769,34.434768)">
		<path id="path24591" sodipodi:nodetypes="cccsccc" d="M159.8,357.7c3.4,0,6.1,5,6.1,11.3v22.8c0,6.3,0.7,11.5-6.1,11.3
			c-3.4-0.1-6.1-5-6.1-11.3V369C153.7,362.8,156.4,357.7,159.8,357.7z"/>
		<path id="path24593" sodipodi:nodetypes="cccsccc" fill="#7689C4" d="M158.7,362.1c2.4,0,4.4,4,4.4,8.9v18c0,4.9,0.5,9.1-4.4,8.9
			c-2.4-0.1-4.4-4-4.4-8.9v-18C154.3,366.1,156.3,362.1,158.7,362.1z"/>
	</g>
	<g id="g24595" transform="matrix(1,0,0,0.7474219,-18.119017,44.772491)">
		<path id="path24597" sodipodi:nodetypes="cccsccc" d="M149.6,377.6c3.4,0,6.1,5,6.1,11.3v22.8c0,6.3,0.7,11.5-6.1,11.3
			c-3.4-0.1-6.1-5-6.1-11.3v-22.8C143.5,382.6,146.2,377.6,149.6,377.6z"/>
		<path id="path24599" sodipodi:nodetypes="cccsccc" fill="#7689C4" d="M148.6,382c2.4,0,4.4,4,4.4,8.9v18c0,4.9,0.5,9.1-4.4,8.9
			c-2.4-0.1-4.4-4-4.4-8.9v-18C144.2,386,146.1,382,148.6,382z"/>
	</g>
	<path id="path24603" sodipodi:nodetypes="cccsccc" d="M140.7,332.1c2.6,0,4.7,3.9,4.7,8.7v17.6c0,4.8,0.5,8.9-4.7,8.7
		c-2.6-0.1-4.7-3.9-4.7-8.7v-17.6C136,336,138.1,332.1,140.7,332.1z"/>
	<g id="path24605" sodipodi:nodetypes="cccsccc" filter="url(#filter10860)">
		<path fill="#43599D" d="M139.8,335.5c1.9,0,3.4,3.1,3.4,6.9v13.9c0,3.8,0.4,7-3.4,6.9c-1.9-0.1-3.4-3.1-3.4-6.9v-13.9
			C136.5,338.6,138,335.5,139.8,335.5z"/>
	</g>
	<g id="g24607" transform="matrix(1,0,0,0.879434,145.31358,20.806081)">
		<path id="path24609" sodipodi:nodetypes="cccsccc" d="M180.8,355.7c3.4,0,6.1,5,6.1,11.3v22.8c0,6.3,0.7,11.5-6.1,11.3
			c-3.4-0.1-6.1-5-6.1-11.3V367C174.7,360.7,177.4,355.7,180.8,355.7z"/>
		<path id="path24611" sodipodi:nodetypes="cccsccc" fill="#7689C4" d="M179.7,360.1c2.4,0,4.4,4,4.4,8.9v18c0,4.9,0.5,9.1-4.4,8.9
			c-2.4-0.1-4.4-4-4.4-8.9v-18C175.3,364,177.3,360.1,179.7,360.1z"/>
	</g>
	<path id="path24613" sodipodi:nodetypes="ccccccczzcc" d="M294.8,319.8c0,0,15.6-5.9,19.6-3.5c1.7,1,1.2,16.6,1.2,16.6
		c0,13.3-1.2,28-1.2,28l6.5,6.6l-1.2-44.1c0,0-0.3-20.6-5-20.6c-2.2,0-0.8,4.5-3.8,7.1c-3,2.6-5.1,1.8-10,3.3s-12.4,3.8-18.1,3.8
		L294.8,319.8z"/>
	<g id="g2199" transform="matrix(1,0,0,0.8319383,154.89568,35.235806)">
		<path id="path2201" sodipodi:nodetypes="cccsccc" d="M182.6,364.1c3.4,0,6.1,5,6.1,11.3v22.8c0,6.3,0.7,11.5-6.1,11.3
			c-3.4-0.1-6.1-5-6.1-11.3v-22.8C176.5,369.1,179.2,364.1,182.6,364.1z"/>
		<path id="path2203" sodipodi:nodetypes="cccsccc" fill="#7689C4" d="M181.5,368.5c2.4,0,4.4,4,4.4,8.9v18c0,4.9,0.5,9.1-4.4,8.9
			c-2.4-0.1-4.4-4-4.4-8.9v-18C177.1,372.4,179.1,368.5,181.5,368.5z"/>
	</g>
	<g id="g2205" transform="matrix(1.0945237,0,0,0.7552144,148.2285,56.060891)">
		<path id="path2207" sodipodi:nodetypes="cccsccc" d="M183.4,379.3c3.4,0,6.1,5,6.1,11.3v22.8c0,6.3,0.7,11.5-6.1,11.3
			c-3.4-0.1-6.1-5-6.1-11.3v-22.8C177.3,384.3,180,379.3,183.4,379.3z"/>
		<path id="path2209" sodipodi:nodetypes="cccsccc" fill="#7689C4" d="M182.4,383.7c2.4,0,4.4,4,4.4,8.9v18c0,4.9,0.5,9.1-4.4,8.9
			c-2.4-0.1-4.4-4-4.4-8.9v-18C177.9,387.7,179.9,383.7,182.4,383.7z"/>
	</g>
	<path id="path2213" sodipodi:nodetypes="cccsccc" d="M300.5,326.2c2.6,0,4.7,3.6,4.7,8v16.1c0,4.4,0.5,8.2-4.7,8
		c-2.6-0.1-4.7-3.6-4.7-8v-16.1C295.8,329.8,297.9,326.2,300.5,326.2z"/>
	<g id="path2215" sodipodi:nodetypes="cccsccc" filter="url(#filter11851)">
		<path fill="#42599C" d="M299.7,329.3c1.9,0,3.4,2.8,3.4,6.3v12.7c0,3.5,0.4,6.4-3.4,6.3c-1.9-0.1-3.4-2.8-3.4-6.3v-12.7
			C296.3,332.1,297.8,329.3,299.7,329.3z"/>
	</g>
	<path id="path2219" sodipodi:nodetypes="cccsccc" d="M310.1,332c3.1,0,5.6,3.4,5.6,7.7v15.5c0,4.3,0.6,7.9-5.6,7.7
		c-3.1-0.1-5.6-3.4-5.6-7.7v-15.5C304.5,335.4,307,332,310.1,332z"/>
	<path id="path2221" sodipodi:nodetypes="cccsccc" fill="#42599C" d="M309.1,335c2.2,0,4,2.7,4,6.1v12.3c0,3.4,0.5,6.2-4,6.1
		c-2.2-0.1-4-2.7-4-6.1v-12.3C305.1,337.7,306.9,335,309.1,335z"/>
	<path id="path2220" sodipodi:nodetypes="ccccscsscccscccc" stroke="#FFFFFF" stroke-width="2.5" d="M237.2,171.7l-11.8,76.1h14.8
		l5.9-38c0,0,4.2,0,14.3,0c5.2,0,5.3,3.8,5.3,3.8s0.4,0.9-0.3,5.7c-0.7,4.8,1.5-9.5-1.5,9.5c-1.1,7.1-3,19-3,19h14.8
		c1.7-12.7,4.5-25.4,5.8-38.1c0.4-7-1.1-10.6-4.3-12.3c-3.1-1.6-5.8-2.1-14.3-2.2c-6.1,0-11.9,0-14.5,0l3.6-23.4H237.2z"/>
	<path id="path19704" sodipodi:nodetypes="ccczccczz" d="M211.1,123.2c7.6,9.6,13.7,31.9,14.3,39.5c1.7,13.6,1.2,32.2,0.4,45.8
		c0.2,4,0.6,4.3,1.8,5c1.2,0.7,2.8-0.4,3.4-4.8c1.6-21.9,0.1-37.2-1-45.9c-1.9-13.3-6.3-27.1-12.9-39.4c-2-3.4-2.8-3.4-4.3-3.5
		C211.4,119.7,203.5,113.7,211.1,123.2z"/>
	<g id="path6790" sodipodi:nodetypes="ccccczzcz" filter="url(#filter8877)">
		<path fill="#96A4D2" d="M169.3,116.6c-8.2,3.1-30.1,15.4-38.1,24.2c11.6-1.3,21.4-11.1,33-15.3c9.6-3.1,17.1-6.4,30.6-4
			c29,6.1,24.2,60.4,28.2,86.6c5.7,1.8,3.7-37.7,1.4-51.4c-2.4-13.7-9.8-30.1-12.6-32.7c-5.6-5.3-2.8-9.8-14.9-12.3
			C187.4,109.8,177.5,113.5,169.3,116.6z"/>
	</g>
	<g id="g4248">
		<path id="rect2271" stroke="#FFFFFF" stroke-width="2.5" d="M171.9,193.6l-11.8,76.1h14.8l3.1-20.5c0.3,0,18.1,0,25.2,0
			c3.3,0,9.2-1.9,14.3-5.7c5.2-3.8,10.7-13.4,11.2-22.9c0.5-9.5-0.4-18.4-4.7-22.4c-4.4-4.1-6.9-4.5-16.7-4.7c-8.6,0-20.5,0-20.5,0
			H171.9z"/>
		<path id="path10025" fill="#7689C4" stroke="#FFFFFF" stroke-width="2.5" d="M179.9,237.5c1.7,0,11.6,0,16,0
			c2.3,0,6.3-1.1,9.8-3.3c3.6-2.2,7.3-7.9,7.7-13.5c0.4-5.6-0.3-10.8-3.2-13.2c-3-2.4-4.7-2.7-11.5-2.7c-5.7,0-13.3,0-13.7,0
			L179.9,237.5z"/>
	</g>
	<g id="g4252">
		<path id="path11008" stroke="#FFFFFF" stroke-width="2.5" d="M285.7,193.6l-11.8,76.1h14.8l3.1-20.5c0.3,0,18.1,0,25.2,0
			c3.3,0,9.2-1.9,14.3-5.7c5.2-3.8,10.7-13.4,11.2-22.9c0.5-9.5-0.4-18.4-4.7-22.4c-4.4-4.1-6.9-4.5-16.7-4.7c-8.6,0-20.5,0-20.5,0
			H285.7z"/>
		<path id="path11010" fill="#7689C4" stroke="#FFFFFF" stroke-width="2.5" d="M293.7,237.5c1.7,0,11.6,0,16,0
			c2.3,0,6.3-1.1,9.8-3.3c3.6-2.2,7.3-7.9,7.7-13.5c0.4-5.6-0.3-10.8-3.2-13.2c-3-2.4-4.7-2.7-11.5-2.7c-5.7,0-13.3,0-13.7,0
			L293.7,237.5z"/>
	</g>
	<g id="path2217" sodipodi:nodetypes="czccczzczzz" filter="url(#filter8857)">
		<path fill="#96A4D2" d="M49.6,370.4c1.1,0.4-8.9,2.2-16.3-8.1c-7.6-10.5-6.3-34.6-5.9-51.2c-0.8-23.8-0.1-43.7,2.3-67.4
			c0.8-6.7,12.3-65.8,12.3-65.8s3.2-13.7,6-22.5c2.8-8.9,4.7-10.1,7-12.6c2.1-2.2,8.2-4.4,19.7-6.6c-26.6,9.4-33.5,89.8-38.1,125.9
			c-4.6,36-0.8,66.7,0.3,76.4C38.1,348.7,48.5,370,49.6,370.4z"/>
	</g>
</g>
</svg>
