<?xml version="1.0" encoding="utf-8"?>
<!-- Generator: Adobe Illustrator 17.1.0, SVG Export Plug-In . SVG Version: 6.00 Build 0)  -->
<!DOCTYPE svg PUBLIC "-//W3C//DTD SVG 1.1//EN" "http://www.w3.org/Graphics/SVG/1.1/DTD/svg11.dtd">
<svg version="1.1" id="Calque_1" xmlns="http://www.w3.org/2000/svg" xmlns:xlink="http://www.w3.org/1999/xlink" x="0px" y="0px"
	 viewBox="-163 0 844 582" enable-background="new -163 0 844 582" xml:space="preserve">
<g id="Capa_2">
</g>
<g id="Calque_3">
</g>
<g id="Capa_1">
	<g>
		<path fill="#FFF5E1" d="M110.3,66.6L151.9,21c0,0,34.1,50,91.1,75.6c-0.5,1.1-33.5,69-33.5,69l19.8,39.9L199,334L110.3,66.6z"/>
		<path fill="#FFF5E1" d="M377.6,66.6L336,21c0,0-39.9,51.1-92.8,75.6c-1-0.2,35.2,69,35.2,69l-19.8,39.9L289,334L377.6,66.6z"/>
		<path fill="#C1B59A" d="M243.1,96.6c-1.7,3.8-3.4,7.5-5.1,11.1c-1.7,3.8-3.5,7.4-5.2,11.1c-1.7,3.8-3.5,7.4-5.3,11
			c-1.8,3.6-3.6,7.4-5.5,11l-5.6,10.9l-5.6,11.4l-5,10.7l-5.6,10.7l-2.6,4.4l-3.5-4.2l-9.3-11.8c-3.1-4-6.1-8-9.2-11.9
			c-3.1-4-6.1-8-9.1-11.9l-4.5-6l-4.5-6l-9-12.2c-1.5-2-3-4.1-4.4-6.1l-4.4-6.1c-1.5-2-3-4.1-4.3-6.1l-4.3-6.1
			c-2.8-4.1-18-29.5-20.7-33.8c3.4,3.8,18.9,28.7,22.3,32.5l4.9,5.7c1.6,1.9,3.3,3.8,4.9,5.7l4.9,5.8c1.6,1.9,3.3,3.9,4.9,5.8
			l9.5,11.6l4.8,5.8l4.8,5.8c3.2,3.9,6.3,7.8,9.4,11.7s6.3,7.8,9.3,11.8l9.2,11.8l-5.3,0.5l5.9-10.8l5.9-10.7l6-10.7l6.1-10.6
			c2-3.5,4.1-7,6.1-10.6c2-3.5,4.1-7,6.3-10.6c2.2-3.5,4.2-7,6.4-10.5C238.8,103.5,240.9,100,243.1,96.6z"/>
		<path fill="#C1B59A" d="M243.1,96.6c2.3,3.4,4.4,6.9,6.6,10.5c2.2,3.5,4.3,7,6.4,10.6c2.2,3.5,4.2,7,6.3,10.6
			c2,3.5,4.2,7,6.1,10.7l6.1,10.7l6,10.7l6,10.8l5.9,10.8l-5.3-0.5l9.2-11.8c3.1-4,6.1-7.8,9.3-11.8c3.1-4,6.3-7.8,9.4-11.7l4.8-5.8
			l4.8-5.8l9.5-11.6c1.6-1.9,3.2-3.9,4.9-5.8l4.9-5.8c1.6-1.9,3.3-3.9,4.9-5.7l4.9-5.7c3.3-3.8,20.7-29.3,24.1-33
			c-2.7,4.2-19.7,30.1-22.5,34.2l-4.3,6.1c-1.5,2-2.8,4.1-4.3,6.1l-4.4,6.1c-1.5,2-3,4.1-4.4,6.1l-9,12.2l-4.5,6l-4.5,6
			c-3.1,4-6,8-9.1,11.9c-3.1,4-6.1,8-9.2,11.9l-9.3,11.8l-3.1,3.9l-2.3-4.3l-5.8-10.9l-5.7-10.9l-5.6-10.9l-5.6-11
			c-1.8-3.6-3.6-7.4-5.5-11c-1.8-3.6-3.6-7.4-5.3-11.1c-1.8-3.8-3.5-7.4-5.2-11.1C246.5,104.1,244.8,100.3,243.1,96.6z"/>
		<path fill="#252833" d="M101.1,72.7l-3.9,13.6l-4,13.5c-2.6,9.1-5.3,18.1-8,27.2c-2.6,9.1-5.3,18.1-8.1,27s-5.5,18.1-8.2,27
			l-0.9-2.7l19.5,12.2c6.5,4.1,13.1,8.2,19.5,12.3l19.5,12.3c6.5,4.1,13,8.2,19.4,12.3l3.8,2.4l-3.5,2.7l-21.4,16.6
			c-7.2,5.6-14.2,11-21.4,16.6l0.7-4.4l17.6,24.4l8.9,12.3l8.7,12.3l17.5,24.5c5.8,8.2,11.6,16.4,17.4,24.5
			c5.8,8.2,11.6,16.4,17.4,24.7l17.3,24.7l17.2,24.8l8.5,12.4l8.4,12.5l-9.2-11.9l-9.2-11.9l-18.2-24l-18.1-24.1
			c-6-8.1-12-16.1-18-24.2c-6-8.1-12-16.1-18-24.2l-18.1-24.3l-8.9-12.2l-8.9-12.2L99.2,265l-1.8-2.5l2.5-1.9
			c7.2-5.6,14.3-11,21.5-16.5l21.5-16.5l0.2,5.1c-6.5-4.1-13-8.3-19.3-12.5l-19.3-12.5c-6.5-4.2-13-8.3-19.3-12.6l-19.3-12.6l-1.5-1
			l0.6-1.7c3-9,5.9-17.8,9-26.8c3.1-9,6-17.8,9.1-26.8c3.1-8.9,6-17.8,9.2-26.7l4.7-13.3L101.1,72.7z"/>
		<path fill="#252833" d="M391.1,73l4.7,13.3l4.7,13.3c3.1,8.9,6.1,17.8,9.2,26.7c3.1,8.9,6,17.8,9.1,26.8l4.5,13.4l4.4,13.4
			l0.6,1.7l-1.6,1l-19.3,12.6l-19.3,12.5l-19.3,12.5c-6.5,4.2-13,8.3-19.3,12.5l0.3-5l18.8,16.5c6.3,5.5,12.5,11,18.6,16.5l2.2,1.9
			l-1.7,2.4l-17.8,24.3l-8.9,12.2l-9,12.2L334.1,338c-5.9,8.1-12,16.1-18,24.2c-6,8.1-12,16.1-18.1,24.1l-18.2,24.1l-18.3,24
			l-9.2,11.9l-9.2,11.9l8.5-12.5l8.5-12.4l17.2-24.8l17.3-24.7c5.8-8.2,11.6-16.4,17.4-24.5c5.8-8.2,11.6-16.4,17.5-24.5l17.6-24.4
			l8.8-12.3l8.9-12.2l17.7-24.4l0.5,4.3c-6.3-5.5-12.4-11-18.6-16.6l-18.6-16.6l-3.1-2.7l3.5-2.2c6.5-4.1,13-8.3,19.4-12.3
			l19.5-12.3l19.5-12.3l19.5-12.2l-1,2.7l-4.1-13.5l-4.1-13.5c-2.7-9-5.5-18.1-8.1-27c-2.6-9.1-5.3-18.1-8-27.2l-4-13.5L391.1,73z"
			/>
	</g>
	<rect x="231.8" y="151.1" fill="none" width="40.9" height="52.8"/>
	<text transform="matrix(1 0 0 1 231.8184 184.9874)" fill="#C1B59A" font-family="'PenultimateLight'" font-size="47.7273">S</text>
</g>
<rect x="-110.6" y="449.3" fill="none" width="754.7" height="156.7"/>
<text transform="matrix(1 0 0 1 -40.242 568.2457)" fill="#252833" font-family="'PenultimateLight'" font-size="150">Portfolio</text>
</svg>
