<?xml version="1.0" encoding="utf-8"?>
<!-- Generator: Adobe Illustrator 17.1.0, SVG Export Plug-In . SVG Version: 6.00 Build 0)  -->
<!DOCTYPE svg PUBLIC "-//W3C//DTD SVG 1.1//EN" "http://www.w3.org/Graphics/SVG/1.1/DTD/svg11.dtd">
<svg version="1.1" id="Layer_1" xmlns="http://www.w3.org/2000/svg" xmlns:xlink="http://www.w3.org/1999/xlink" x="0px" y="0px"
	 viewBox="0 0 32 32" enable-background="new 0 0 32 32" xml:space="preserve">
<g>
	<circle fill="#FFFFFF" cx="23.6" cy="4" r="3.9"/>
	<path fill="#FFFFFF" d="M15.6,24.5v-1c0-0.8,0.4-1.5,1-2v-3.3H13c-1.4,0-2.5-1.1-2.5-2.5c0-0.2,0.1-0.4,0.1-0.6v-0.9H11
		c0.5-0.7,1.2-1,2-1h3.3c0-0.2,0.1-0.2,0.1-0.4V4c0-0.7-0.7-1.4-1.4-1.4H3.9C3.2,2.6,2.7,3.3,2.7,4v8.9c0,0.7,0.6,1.4,1.3,1.4h4.5
		v1.2H6.9c-0.7,0-1.2,0.5-1.2,1.3H0.6c-0.3,0-0.6,0.2-0.6,0.5v1.4c0,0.3,0.2,0.5,0.6,0.5h1.7v12.6h14.6v-5.7
		C16.9,26.2,15.6,25.9,15.6,24.5z M5.9,12.3c-0.7,0-1.4-0.5-1.4-1.3V5.9c0-0.7,0.7-1.3,1.4-1.3h7.2c0.7,0,1.4,0.6,1.4,1.3V11
		c0,0.7-0.6,1.3-1.4,1.3C13.1,12.3,5.9,12.3,5.9,12.3z"/>
	<path fill="#FFFFFF" d="M26.2,8.5H21c-3.1,0-3.3,3.2-3.3,3.2s-0.4,2.1-0.8,2.4c-0.1,0.1-0.2,0.1-0.4,0.1H13c-0.8,0-1.5,0.7-1.5,1.5
		c0,0.8,0.7,1.5,1.5,1.5h3.5c0.5,0,1,0,1.1,0l0,3.7h2v-8.1c0-1.6,1.1-3.5,2.7-3.5h6.1C27.8,8.7,27,8.5,26.2,8.5z"/>
	<path fill="#FFFFFF" d="M30,25.1c1.1,0,2-0.9,2-2V12.7c0-1.2-1.1-2.3-2.3-2.3h-7c-1.2,0-2.2,1.1-2.2,2.3v9.2h-2.2
		c-0.9,0-1.6,0.7-1.6,1.5V24c0,0.6,0.5,1.1,1.1,1.1h4.8v1.3h-0.8c0,0-1.9,0-1.9,1.8v2.5c0,0.6,0.4,1,1,1c0.6,0,1-0.5,1-1l0-2.3h3.5
		v2.3c0,0.6,0.5,1,1.1,1c0.6,0,1.1-0.5,1.1-1v-2.5c0-1.9-2-1.8-2-1.8h-0.8v-1.3L30,25.1L30,25.1z"/>
</g>
</svg>
