<?xml version="1.0" encoding="utf-8"?>
<!-- Generator: Adobe Illustrator 17.1.0, SVG Export Plug-In . SVG Version: 6.00 Build 0)  -->
<!DOCTYPE svg PUBLIC "-//W3C//DTD SVG 1.1//EN" "http://www.w3.org/Graphics/SVG/1.1/DTD/svg11.dtd">
<svg version="1.1" id="Capa_1" xmlns="http://www.w3.org/2000/svg" xmlns:xlink="http://www.w3.org/1999/xlink" x="0px" y="0px"
	 viewBox="-226.2 -226.3 500 500" enable-background="new -226.2 -226.3 500 500" xml:space="preserve">
<g id="Whisk">
	<g>
		<path d="M48.2,54c-1.6,0-3.3-0.6-4.5-1.9L33,41.5c-2.5-2.5-2.5-6.6,0-9.1c2.5-2.5,6.6-2.5,9.1,0L52.8,43c2.5,2.5,2.5,6.6,0,9.1
			C51.5,53.4,49.9,54,48.2,54z"/>
		<path d="M159.4,176.1c-6.7,0-14.7-4-21.3-10.6l-86-86c-6.6-6.6-10.6-14.6-10.6-21.4c0-3.8,1.2-7,3.6-9.3l4.4-4.4
			c6.5-6.5,20.3-3.3,30.7,7l86,86c4.7,4.7,8.1,10.2,9.7,15.4c1.8,6.3,0.9,11.7-2.7,15.2l-4.4,4.4
			C166.4,174.9,163.2,176.1,159.4,176.1z M58.8,50.5c-0.8,0-1.9,0.1-2.5,0.7l-4.4,4.4c-0.6,0.6-0.7,1.7-0.7,2.5
			c0,3.1,2,8.8,7.8,14.5l86,86c5.7,5.7,11.4,7.8,14.5,7.8c0.8,0,1.9-0.1,2.5-0.7l4.4-4.4c0.9-0.9,1-3.1,0.2-5.7
			c-1.1-3.7-3.7-7.8-7.2-11.3l-86-86C67.6,52.5,61.9,50.5,58.8,50.5z"/>
		<path d="M19.5,42.3c-36.7,0-110.2-40.5-129.3-59.7c-25.7-25.7-25.7-66.1,0.1-91.8c12.5-12.5,28.8-19.4,46-19.4
			c17,0,33.3,6.9,45.7,19.4C5.2-86.1,61.1,12.6,37.3,36.5C33.5,40.3,27.5,42.3,19.5,42.3z M-63.7-122.2c-15.5,0-30.2,6.2-41.5,17.5
			c-23.6,23.6-23.6,59.2-0.1,82.7C-87.2-3.9-15.1,35.8,19.5,35.8c6.2,0,10.7-1.3,13.3-3.9C50.8,13.9,3.9-78.3-22.5-104.7
			C-33.8-116-48.4-122.2-63.7-122.2z"/>
		<path d="M26.8,39.6c-30.6,0-106.2-50.7-124.3-67.9C-108.7-39-121.8-58.5-122-78.5c-0.1-11.7,4-21.9,12.5-30.3
			c1.3-1.3,3.3-1.3,4.5,0s1.3,3.3,0,4.5c-7.1,7.1-10.7,15.8-10.6,25.7c0.2,18,12.3,35.8,22.5,45.6C-67-8.2,20.2,43.9,32.3,31.8
			c1.3-1.3,3.3-1.3,4.5,0c1.3,1.3,1.3,3.3,0,4.5C34.6,38.6,31.1,39.6,26.8,39.6z"/>
		<path d="M32.9,38.1c-4.6,0-16.5-5.2-52.5-31.3c-26.8-19.5-53.5-41-64.7-52.3c-8.5-8.5-17.3-21.4-22.7-33.7
			c-4.5-10.1-8.6-23.4-2.3-29.7c1.3-1.3,3.3-1.3,4.5,0s1.3,3.3,0,4.5c-2.2,2.2-2,10.1,3.6,22.6C-96.1-70.2-87.9-58-79.8-50
			C-55.4-25.6,21.9,30.7,32.2,31.7c1.2-0.6,2.7-0.4,3.7,0.6c1.3,1.3,1.3,3.3,0,4.5C35.4,37.4,34.6,38.1,32.9,38.1z"/>
		<path d="M33.7,37.7c-0.8,0-1.6-0.3-2.3-0.9c-1-1-1.2-2.5-0.6-3.7C30,22.7-25.6-54.5-49.8-78.7c-8-8-20.4-16.3-32.2-21.6
			c-12.8-5.7-20.8-6-23.1-3.8c-1.3,1.3-3.3,1.3-4.5,0s-1.3-3.3,0-4.5c6.3-6.3,19.9-2.1,30.2,2.4c12.5,5.6,25.6,14.3,34.2,22.9
			C-34.1-72-12.8-45.5,6.5-18.6C42,30.8,38.2,34.5,36,36.8C35.3,37.4,34.5,37.7,33.7,37.7z"/>
		<path d="M33.3,38.6c-0.8,0-1.6-0.3-2.3-0.9c-1.3-1.3-1.3-3.3,0-4.5c1.4-1.4,1.6-4,1.6-5.9C32.6,1.6-14-72.6-33.7-92.2
			c-14.5-14.4-48-35.3-71.3-12.1c-1.3,1.3-3.3,1.3-4.5,0c-1.3-1.3-1.3-3.3,0-4.5c26.9-26.9,64.3-3.9,80.4,12
			C-10.1-77.8,39-2.4,39.1,27.2c0,4.6-1.2,8.1-3.5,10.5C34.9,38.3,34.1,38.6,33.3,38.6z"/>
		<path d="M32.3,36.3c-0.8,0-1.6-0.3-2.3-0.9l-138.8-139.1c-1.3-1.3-1.3-3.3,0-4.5c1.3-1.2,3.3-1.3,4.5,0L34.6,30.8
			c1.3,1.3,1.3,3.3,0,4.5C33.9,36,33.1,36.3,32.3,36.3z"/>
	</g>
	<circle cx="150.3" cy="149.6" r="5.9"/>
</g>
</svg>
